<svg width="36" height="36" viewBox="0 0 36 36" fill="none" xmlns="http://www.w3.org/2000/svg">
<path d="M23.3548 23.0362L22.7299 22.1008L22.3122 22.3798L22.2412 22.8771L23.3548 23.0362ZM12.655 23.0396L13.7687 22.8805L13.6976 22.3828L13.2794 22.1038L12.655 23.0396ZM13.2797 27.4123L12.166 27.5714L12.304 28.5373H13.2797V27.4123ZM22.7297 27.4123V28.5373H23.7054L23.8434 27.5714L22.7297 27.4123ZM26.5242 15.0092C26.5242 17.9654 25.0199 20.5707 22.7299 22.1008L23.9798 23.9716C26.8681 22.0418 28.7742 18.7483 28.7742 15.0092H26.5242ZM18.0023 6.4873C22.7088 6.4873 26.5242 10.3027 26.5242 15.0092H28.7742C28.7742 9.06004 23.9515 4.2373 18.0023 4.2373V6.4873ZM9.48047 15.0092C9.48047 10.3027 13.2958 6.4873 18.0023 6.4873V4.2373C12.0532 4.2373 7.23047 9.06004 7.23047 15.0092H9.48047ZM13.2794 22.1038C10.9868 20.5741 9.48047 17.9673 9.48047 15.0092H7.23047C7.23047 18.7508 9.1391 22.0462 12.0306 23.9755L13.2794 22.1038ZM14.3934 27.2532L13.7687 22.8805L11.5413 23.1987L12.166 27.5714L14.3934 27.2532ZM22.7297 26.2873H13.2797V28.5373H22.7297V26.2873ZM22.2412 22.8771L21.616 27.2532L23.8434 27.5714L24.4685 23.1953L22.2412 22.8771Z" fill="#002A68"/>
<rect x="12.0938" y="29.7749" width="11.8125" height="2.25" fill="#002A68"/>
<path fill-rule="evenodd" clip-rule="evenodd" d="M21.9375 14.8122H24.3C24.3 13.9849 24.137 13.1657 23.8204 12.4013C23.5147 11.6632 23.0715 10.9902 22.5146 10.4181C22.4948 10.3977 22.4749 10.3775 22.4548 10.3574C21.8698 9.77242 21.1753 9.30837 20.4109 8.99177C19.6466 8.67516 18.8273 8.51221 18 8.51221V10.8747C20.1746 10.8747 21.9375 12.6376 21.9375 14.8122Z" fill="#0087D1"/>
</svg>
