<svg width="132" height="28" viewBox="0 0 132 28" fill="none" xmlns="http://www.w3.org/2000/svg">
<path d="M2.0985 20.1729C2.72975 20.7213 3.41219 21.1533 4.17993 21.5521C4.91356 21.9509 5.71542 22.3331 6.53435 22.599C7.37033 22.8981 8.24044 23.0975 9.14467 23.247C10.0148 23.4132 10.919 23.4797 11.8232 23.4464C13.2052 23.4464 14.3653 23.1806 15.2525 22.6654C16.1226 22.2002 16.5662 21.3859 16.5662 20.3058C16.5662 19.0928 16.1226 18.1789 15.2525 17.5308C14.3483 16.916 13.0687 16.4507 11.3626 16.0519C9.62238 15.7196 8.10395 15.2709 6.7732 14.7724C5.42538 14.2905 4.31642 13.6923 3.41219 13.011C2.50796 12.3297 1.80846 11.5654 1.36488 10.6514C0.88717 9.77073 0.665377 8.72387 0.665377 7.51083C0.665377 6.23133 0.938352 5.118 1.50136 4.17084C2.06438 3.25691 2.78094 2.47592 3.75341 1.84447C4.69176 1.22965 5.7666 0.764377 7.01205 0.432039C8.22338 0.166169 9.50295 0 10.9019 0C12.7445 0 14.5189 0.299104 16.1738 0.847461C17.8458 1.46229 19.5007 2.22666 21.1726 3.24029L19.1253 7.26158C18.0164 6.48059 16.7368 5.84914 15.3378 5.30079C13.9217 4.78566 12.4886 4.51979 11.1067 4.45333C10.5095 4.45333 9.92947 4.48656 9.36646 4.55303C8.73521 4.65273 8.22338 4.8189 7.76273 5.0183C7.28503 5.25094 6.8585 5.56666 6.58553 5.93223C6.27843 6.33103 6.14194 6.81292 6.14194 7.34466C6.14194 7.85979 6.21019 8.29183 6.3808 8.62416C6.51728 9.02297 6.82438 9.37193 7.25091 9.6378C7.66037 9.97013 8.22338 10.2526 8.92288 10.5185C9.62238 10.7844 10.4925 11.0668 11.6014 11.3327C13.5123 11.8312 15.1501 12.3463 16.4979 12.8947C17.8116 13.4763 18.8865 14.0745 19.7225 14.7558C20.5243 15.4703 21.1044 16.2347 21.4968 17.1154C21.838 17.9961 22.0598 19.043 22.0598 20.1895C22.0598 21.469 21.7868 22.5491 21.2238 23.4963C20.6608 24.4434 19.9101 25.2577 18.9718 25.9223C17.9993 26.5704 16.8903 27.0689 15.6108 27.4012C14.2971 27.7336 12.864 27.9164 11.4138 27.9164C9.29822 27.9164 7.28503 27.5508 5.34008 26.8695C3.36101 26.155 1.58667 25.2743 0 24.1942L2.11556 20.1729H2.0985Z" fill="white"/>
<path d="M23.082 27.2364L33.148 0.649414H39.1534L49.2194 27.2531H43.777L40.6548 18.6954L30.6912 21.3374L28.5415 27.2531H23.0991L23.082 27.2364ZM32.3632 16.8343L39.307 15.0064L36.1507 6.41547L32.3632 16.8176V16.8343Z" fill="white"/>
<path d="M71.8117 11.5999V15.7209H57.4805V23.1487H72.8183V27.2364H52.0039V0.649414H72.4771V4.7704H57.4805V11.5999H71.8117Z" fill="white"/>
<path d="M76.4492 0.649414H91.0875C92.2647 0.649414 93.3396 0.815583 94.3803 1.1313C95.3869 1.46364 96.2911 1.94553 97.0589 2.54374C97.8266 3.22503 98.4067 4.02264 98.8673 4.9698C99.2768 5.98344 99.4986 7.13 99.4986 8.45935C99.4986 10.3537 99.0891 11.8326 98.2872 12.8794C97.4513 13.9595 96.3082 14.7738 94.8921 15.3055L100.966 27.2364H95.3016L89.8933 16.6182L81.9428 18.4461V27.2364H76.4663V0.649414H76.4492ZM94.0561 8.45935C94.0561 7.27955 93.6808 6.36562 92.9813 5.71757C92.2135 5.10274 91.2752 4.7704 90.1321 4.7704H81.9428V13.9928L89.535 12.464C90.9852 12.2314 92.1112 11.7495 92.896 11.0848C93.6637 10.4368 94.0391 9.55607 94.0391 8.44273L94.0561 8.45935Z" fill="white"/>
<path d="M115.264 22.7776C111.084 21.7806 107.979 18.1082 107.979 13.738C107.979 9.36774 111.084 5.69541 115.264 4.6984V0.294922C108.542 1.42487 103.406 7.12446 103.406 14.0039C103.406 20.8832 108.525 26.5828 115.264 27.7128V22.7942V22.7776Z" fill="#D5EBDE"/>
<path d="M120.141 0.296417V4.78298C124.167 5.87969 127.119 9.46894 127.119 13.7395C127.119 18.01 124.167 21.5993 120.141 22.696V27.6811C126.863 26.5511 131.998 20.8515 131.998 13.9721C131.998 7.09273 126.88 1.39313 120.141 0.263184V0.296417Z" fill="#D5EBDE"/>
<path d="M115.264 0.081543H103.406V4.83397H115.264V0.081543Z" fill="#D5EBDE"/>
<path d="M131.998 23.1646H120.141V28.0001H131.998V23.1646Z" fill="#D5EBDE"/>
</svg>
