<svg width="24" height="24" viewBox="0 0 24 24" fill="none" xmlns="http://www.w3.org/2000/svg">
<path d="M19.25 9.25H14V4L19.25 9.25Z" fill="#0087D1"/>
<path d="M4.00079 11.2501V4.50009C4.00079 4.10227 4.00568 3 4 3C4 3 5.10297 3.00009 5.50079 3.00009H14.5008C14.5993 3.00001 14.6969 3.01935 14.7879 3.05699C14.879 3.09463 14.9617 3.14984 15.0314 3.21947L20.2814 8.46946C20.351 8.53917 20.4063 8.62191 20.4439 8.71295C20.4815 8.804 20.5009 8.90157 20.5008 9.00009V11.2501C20.5008 11.449 20.5008 12.0001 20.5008 12.0001C20.5008 12.0001 19.9497 12.0001 19.7508 12.0001C19.5519 12.0001 19.0008 12.0001 19.0008 12.0001C19.0008 12.0001 19.0008 11.449 19.0008 11.2501V9.75009H14.5008C14.3019 9.75009 13.7508 9.75009 13.7508 9.75009C13.7508 9.75009 13.7508 9.199 13.7508 9.00009V4.50009H5.50079V11.2501C5.50079 11.449 5.50078 12.0001 5.50078 12.0001C5.50078 12.0001 4.94971 12.0001 4.75079 12.0001C4.55188 12.0001 4.00078 12.0001 4.00078 12.0001C4.00078 12.0001 4.00079 11.449 4.00079 11.2501ZM15.2508 8.25009H17.9405L15.2508 5.5604V8.25009Z" fill="black"/>
<path d="M17.0078 19.7491V13.7891H20.8078V14.9811H18.4398V16.2851H20.4718V17.4771H18.4398V19.7491H17.0078Z" fill="black"/>
<path d="M10.0078 19.7491V13.7891H11.7198C13.5358 13.7891 14.7358 14.6691 14.7358 16.7411C14.7358 18.8131 13.5358 19.7491 11.7998 19.7491H10.0078ZM11.4398 18.5971H11.6318C12.5918 18.5971 13.2718 18.1571 13.2718 16.7411C13.2718 15.3251 12.5918 14.9331 11.6318 14.9331H11.4398V18.5971Z" fill="black"/>
<path d="M4.00781 19.7491V13.7891H6.10381C7.40781 13.7891 8.48781 14.2611 8.48781 15.7331C8.48781 17.1491 7.39981 17.7731 6.13581 17.7731H5.43981V19.7491H4.00781ZM5.43981 16.6451H6.06381C6.75981 16.6451 7.09581 16.3171 7.09581 15.7331C7.09581 15.1331 6.71181 14.9251 6.02381 14.9251H5.43981V16.6451Z" fill="black"/>
</svg>
