<svg width="24" height="24" viewBox="0 0 24 24" fill="none" xmlns="http://www.w3.org/2000/svg">
<path fill-rule="evenodd" clip-rule="evenodd" d="M11.2956 2.25243C12 1.54799 12 1.58608 12.6664 2.25245L21.6664 10.2524C22.4138 10.9999 22.4136 10.9999 21.7494 11.6642C21.0002 12.4134 21 12.4096 20.3377 11.7473L20.002 11.4489V19.9999C20.002 21.9999 20.002 21.9999 18.002 21.9999H6.00202C4.00202 21.9999 4.00202 21.9999 4.00202 19.9999V11.4489L3.66638 11.7473C3.00021 12.4134 3.0032 12.4128 2.25461 11.6642C1.59145 10.9999 1.58723 10.9999 2.33766 10.2524L11.2956 2.25243ZM6.00202 9.67114V19.9999H9.00202V12.9999C9.00202 10.9999 9.00201 10.9999 11.002 10.9999H13.002C15.002 10.9999 15.002 10.9999 15.002 12.9999V19.9999H18.002V9.67114L12.002 4.33781L6.00202 9.67114ZM13.002 19.9999V12.9999H11.002V19.9999H13.002Z" fill="#0087D1"/>
</svg>
