<svg width="20" height="20" viewBox="0 0 20 20" fill="none" xmlns="http://www.w3.org/2000/svg">
<path fill-rule="evenodd" clip-rule="evenodd" d="M15.0013 3.09556H5.0013C3.94933 3.09556 3.09654 3.94835 3.09654 5.00033V15.0003C3.09654 16.0523 3.94933 16.9051 5.0013 16.9051H15.0013C16.0533 16.9051 16.9061 16.0523 16.9061 15.0003V5.00033C16.9061 3.94835 16.0533 3.09556 15.0013 3.09556ZM5.0013 1.66699C3.16035 1.66699 1.66797 3.15938 1.66797 5.00033V15.0003C1.66797 16.8413 3.16035 18.3337 5.0013 18.3337H15.0013C16.8422 18.3337 18.3346 16.8413 18.3346 15.0003V5.00033C18.3346 3.15938 16.8423 1.66699 15.0013 1.66699H5.0013ZM10.0026 12.7387C11.5148 12.7387 12.7407 11.5129 12.7407 10.0007C12.7407 8.48844 11.5148 7.26256 10.0026 7.26256C8.4904 7.26256 7.26451 8.48844 7.26451 10.0007C7.26451 11.5129 8.4904 12.7387 10.0026 12.7387ZM10.0026 14.1673C12.3038 14.1673 14.1693 12.3018 14.1693 10.0007C14.1693 7.69946 12.3038 5.83398 10.0026 5.83398C7.70142 5.83398 5.83594 7.69946 5.83594 10.0007C5.83594 12.3018 7.70142 14.1673 10.0026 14.1673ZM14.3547 6.43113C14.8807 6.43113 15.3071 6.00473 15.3071 5.47875C15.3071 4.95276 14.8807 4.52637 14.3547 4.52637C13.8287 4.52637 13.4023 4.95276 13.4023 5.47875C13.4023 6.00473 13.8287 6.43113 14.3547 6.43113Z" fill="#002A68"/>
</svg>
