<svg width="24" height="24" viewBox="0 0 24 24" fill="none" xmlns="http://www.w3.org/2000/svg">
<path fill-rule="evenodd" clip-rule="evenodd" d="M18.0039 3.96973H6.00391C4.88208 3.96973 3.97266 4.87915 3.97266 6.00098V18.001C3.97266 19.1228 4.88208 20.0322 6.00391 20.0322H18.0039C19.1257 20.0322 20.0352 19.1228 20.0352 18.001V6.00098C20.0352 4.87915 19.1257 3.96973 18.0039 3.96973ZM6.00391 2.00098C3.79477 2.00098 2.00391 3.79184 2.00391 6.00098V18.001C2.00391 20.2101 3.79477 22.001 6.00391 22.001H18.0039C20.213 22.001 22.0039 20.2101 22.0039 18.001V6.00098C22.0039 3.79184 20.213 2.00098 18.0039 2.00098H6.00391ZM12.0055 15.0326C13.6796 15.0326 15.0367 13.6755 15.0367 12.0014C15.0367 10.3273 13.6796 8.97012 12.0055 8.97012C10.3314 8.97012 8.97422 10.3273 8.97422 12.0014C8.97422 13.6755 10.3314 15.0326 12.0055 15.0326ZM12.0055 17.0014C14.7669 17.0014 17.0055 14.7628 17.0055 12.0014C17.0055 9.23994 14.7669 7.00137 12.0055 7.00137C9.24405 7.00137 7.00547 9.23994 7.00547 12.0014C7.00547 14.7628 9.24405 17.0014 12.0055 17.0014ZM17.228 7.71794C17.8592 7.71794 18.3709 7.20627 18.3709 6.57508C18.3709 5.9439 17.8592 5.43223 17.228 5.43223C16.5968 5.43223 16.0852 5.9439 16.0852 6.57508C16.0852 7.20627 16.5968 7.71794 17.228 7.71794Z" fill="#0087D1"/>
</svg>
