<svg width="20" height="20" viewBox="0 0 20 20" fill="none" xmlns="http://www.w3.org/2000/svg">
<path d="M7.95232 7.83017L8.50777 9.42264H7.39686L7.95232 7.83017Z" fill="#002A68"/>
<path fill-rule="evenodd" clip-rule="evenodd" d="M0.332031 8.72875C0.332031 4.4919 4.65951 1.05859 9.99624 1.05859C15.333 1.05859 19.6677 4.49555 19.6677 8.7324C19.6677 12.9692 15.3402 16.4026 10.0035 16.4026C9.41901 16.4026 8.84177 16.3624 8.28631 16.282C8.2435 16.312 8.18532 16.3529 8.11423 16.4029C7.25099 17.0098 4.48383 18.9553 4.20207 18.9958C4.20207 18.9958 4.07501 19.0433 3.96972 18.9812C3.86444 18.9191 3.88259 18.7547 3.88259 18.7547L4.86281 15.2301C2.13999 13.8678 0.332031 11.4681 0.332031 8.72875ZM4.65042 11.4023L4.65225 11.4023H4.64862L4.65042 11.4023ZM4.09317 10.8654C4.09317 11.1606 4.34267 11.4013 4.65042 11.4023C4.95457 11.4013 5.20771 11.157 5.20771 10.8654V7.53067H6.07901C6.37671 7.53067 6.62358 7.28596 6.62358 6.9828C6.62358 6.67965 6.38034 6.43493 6.07901 6.43493H3.22186C2.92417 6.43493 2.6773 6.67965 2.6773 6.9828C2.6773 7.28596 2.92054 7.53067 3.22186 7.53067H4.09317V10.8654ZM9.07775 11.1466C9.13221 11.3 9.3101 11.395 9.54245 11.395C9.66588 11.395 9.78932 11.3731 9.89823 11.3219C10.0507 11.2562 10.1996 11.0553 10.0289 10.5257L8.69656 6.99376C8.60579 6.72348 8.31536 6.43128 7.95232 6.43859C7.58927 6.44589 7.30247 6.72348 7.20808 6.99376L5.87571 10.5257C5.70508 11.0553 5.85393 11.2489 6.0064 11.3219C6.11895 11.3694 6.23875 11.395 6.36219 11.395C6.59453 11.395 6.77243 11.3 6.82688 11.1466L7.1028 10.4161H8.80184L9.07775 11.1466ZM10.392 10.8106C10.392 11.0918 10.6352 11.3219 10.9256 11.3219L12.7154 11.311C13.0095 11.311 13.2491 11.0809 13.2491 10.7996C13.2491 10.5184 13.0059 10.2883 12.7154 10.2883H11.5319V6.99376C11.5319 6.68695 11.2778 6.43128 10.9619 6.43128C10.6461 6.43128 10.392 6.6833 10.392 6.99376V10.8106ZM13.4633 6.99741V10.8325C13.4633 11.5784 14.5815 11.5503 14.5815 10.8215V9.59796L14.7739 9.40438L16.0809 11.1466C16.2563 11.3779 16.6163 11.4388 16.8614 11.2562C17.11 11.0819 17.1547 10.712 16.9703 10.4745L15.598 8.64832L16.8759 7.36996C17.0688 7.17248 17.0208 6.85825 16.836 6.67234C16.6393 6.47444 16.3144 6.45928 16.1426 6.63217L14.5815 8.20272V6.99741C14.5815 6.69061 14.3274 6.43493 14.0224 6.43493C13.7174 6.43493 13.4633 6.68695 13.4633 6.99741Z" fill="#002A68"/>
</svg>
