<svg width="16" height="12" viewBox="0 0 16 12" fill="none" xmlns="http://www.w3.org/2000/svg">
<path d="M13.5358 0.865234H2.46001C1.90392 0.865234 1.45312 1.28356 1.45312 1.7996V9.74167C1.45312 10.2577 1.90392 10.676 2.46001 10.676H13.5358C14.0919 10.676 14.5427 10.2577 14.5427 9.74167V1.7996C14.5427 1.28356 14.0919 0.865234 13.5358 0.865234Z" fill="white" stroke="#002A68" stroke-linecap="round" stroke-linejoin="round"/>
<path d="M1.45312 2.0332L7.3535 6.70501C7.53443 6.84485 7.76244 6.92143 7.99791 6.92143C8.23337 6.92143 8.46139 6.84485 8.64232 6.70501L14.5427 2.0332" fill="white"/>
<path d="M1.45312 2.0332L7.3535 6.70501C7.53443 6.84485 7.76244 6.92143 7.99791 6.92143C8.23337 6.92143 8.46139 6.84485 8.64232 6.70501L14.5427 2.0332" stroke="#002A68" stroke-linecap="round" stroke-linejoin="round"/>
</svg>
