<svg width="17" height="16" viewBox="0 0 17 16" fill="none" xmlns="http://www.w3.org/2000/svg">
<path d="M10.0915 13.8398C10.6915 14.2268 11.4064 14.3955 12.1161 14.3174C12.8258 14.2394 13.4869 13.9193 13.9884 13.4111L14.4268 12.9824C14.619 12.7858 14.7266 12.5218 14.7266 12.2469C14.7266 11.972 14.619 11.7079 14.4268 11.5113L12.566 9.67005C12.3711 9.47846 12.1087 9.37111 11.8354 9.37111C11.562 9.37111 11.2996 9.47846 11.1047 9.67005C10.9081 9.86225 10.6441 9.96987 10.3692 9.96987C10.0942 9.96987 9.8302 9.86225 9.63361 9.67005L6.71091 6.74736C6.61341 6.65127 6.53599 6.53677 6.48314 6.41049C6.43029 6.28422 6.40308 6.1487 6.40308 6.01181C6.40308 5.87493 6.43029 5.7394 6.48314 5.61313C6.53599 5.48686 6.61341 5.37235 6.71091 5.27627C6.9025 5.08132 7.00985 4.81892 7.00985 4.54559C7.00985 4.27226 6.9025 4.00987 6.71091 3.81492L4.85987 1.96388C4.66328 1.77168 4.39926 1.66406 4.12433 1.66406C3.84939 1.66406 3.58537 1.77168 3.38878 1.96388L2.96012 2.40228C2.45191 2.90376 2.13186 3.56493 2.05379 4.27463C1.97573 4.98432 2.1444 5.69925 2.53146 6.29921C4.54816 9.27133 7.11418 11.8307 10.0915 13.8398Z" fill="white"/>
</svg>
