<svg width="16" height="16" viewBox="0 0 16 16" fill="none" xmlns="http://www.w3.org/2000/svg">
<path fill-rule="evenodd" clip-rule="evenodd" d="M7.52907 1.50194C7.9987 1.03232 7.9987 1.05771 8.44295 1.50196L14.443 6.83529C14.9412 7.33358 14.9411 7.33358 14.4983 7.77647C13.9988 8.27595 13.9987 8.2734 13.5571 7.83183L13.3334 7.63294V13.3336C13.3334 14.6669 13.3334 14.6669 12 14.6669H4.00004C2.66671 14.6669 2.66671 14.6669 2.66671 13.3336V7.63294L2.44295 7.83183C1.99884 8.27595 2.00083 8.27553 1.50177 7.77647C1.05966 7.33358 1.05685 7.33358 1.55714 6.83529L7.52907 1.50194ZM4.00004 6.44775V13.3336H6.00004V8.66689C6.00004 7.33357 6.00004 7.33356 7.33338 7.33356H8.66671C10 7.33356 10 7.33357 10 8.66689V13.3336H12V6.44775L8.00004 2.8922L4.00004 6.44775ZM8.66671 13.3336V8.66689H7.33338V13.3336H8.66671Z" fill="#002A68"/>
</svg>
