<svg width="24" height="24" viewBox="0 0 24 24" fill="none" xmlns="http://www.w3.org/2000/svg">
<path fill-rule="evenodd" clip-rule="evenodd" d="M16 9.5C16 12.5376 13.5376 15 10.5 15C7.46243 15 5 12.5376 5 9.5C5 6.46243 7.46243 4 10.5 4C13.5376 4 16 6.46243 16 9.5ZM14.4576 15.872C13.3089 16.587 11.9527 17 10.5 17C6.35786 17 3 13.6421 3 9.5C3 5.35786 6.35786 2 10.5 2C14.6421 2 18 5.35786 18 9.5C18 11.4657 17.2437 13.2548 16.0063 14.5923L22.4851 21.0711L21.0709 22.4853L14.4576 15.872Z" fill="white"/>
</svg>
